<?xml version="1.0" standalone="no"?>
<!DOCTYPE svg PUBLIC "-//W3C//DTD SVG 20010904//EN"
 "http://www.w3.org/TR/2001/REC-SVG-20010904/DTD/svg10.dtd">
<svg version="1.0" xmlns="http://www.w3.org/2000/svg"
 width="900.000000pt" height="306.000000pt" viewBox="0 0 900.000000 306.000000"
 preserveAspectRatio="xMidYMid meet">
<metadata>
Created by potrace 1.10, written by Peter Selinger 2001-2011
</metadata>
<g transform="translate(0.000000,306.000000) scale(0.100000,-0.100000)"
fill="#000000" stroke="none">
<path d="M1062 3027 c-9 -24 -12 -164 -12 -509 0 -420 2 -478 16 -492 13 -14
47 -16 220 -16 l204 0 6 -23 c7 -30 1 -353 -7 -362 -4 -3 -252 -5 -552 -5
-389 0 -548 -3 -552 -11 -4 -6 -7 -162 -7 -347 0 -186 -2 -344 -4 -353 -3 -10
-29 -23 -67 -34 -34 -10 -69 -24 -78 -32 -8 -7 -19 -13 -23 -13 -30 0 -135
-118 -165 -185 -41 -93 -52 -215 -27 -315 22 -87 42 -124 101 -188 152 -164
414 -189 593 -55 123 91 181 210 182 370 0 92 -2 101 -51 208 -41 91 -143 176
-251 209 -32 9 -58 20 -58 24 -1 11 -1 535 0 550 0 9 103 12 479 12 427 0 480
-2 485 -16 12 -32 7 -339 -6 -357 -11 -15 -40 -17 -223 -19 l-210 -3 0 -505 0
-505 518 -3 517 -2 0 510 c0 401 -3 510 -12 510 -7 1 -101 1 -208 0 -107 0
-201 4 -208 8 -9 7 -12 107 -10 468 l3 459 215 5 215 5 3 490 c1 270 0 505 -3
523 l-6 32 -502 0 -503 0 -12 -33z m873 -502 l0 -360 -360 0 -360 0 -3 350
c-1 192 0 356 3 363 3 10 81 12 362 10 l358 -3 0 -360z m3 -1962 l-3 -358
-360 0 -360 0 -3 345 c-1 190 0 351 3 357 3 10 85 13 365 13 l360 0 -2 -357z
m-1394 162 c15 -8 34 -15 41 -15 7 0 35 -21 62 -48 112 -110 122 -280 24 -402
-105 -131 -301 -142 -429 -26 -122 112 -108 362 25 452 78 53 213 72 277 39z"/>
<path d="M4824 1617 c-12 -7 -14 -106 -14 -660 0 -495 3 -656 12 -665 17 -17
759 -17 776 0 13 13 17 165 4 185 -6 10 -79 13 -287 15 l-280 3 -3 555 c-1
305 -6 558 -11 563 -11 11 -178 15 -197 4z"/>
<path d="M8850 1620 l-85 -5 -3 -218 c-3 -238 -7 -255 -55 -203 -13 14 -53 40
-88 58 -62 32 -67 33 -194 33 -146 0 -194 -14 -288 -82 -49 -36 -123 -126
-146 -178 -69 -158 -70 -359 -2 -505 70 -152 210 -251 376 -265 137 -12 284
30 341 98 32 38 54 30 54 -22 0 -26 5 -41 16 -45 21 -8 153 -8 193 0 l31 6 0
658 0 657 -32 9 c-18 5 -71 7 -118 4z m-277 -541 c60 -23 126 -81 154 -137 11
-20 25 -70 33 -110 47 -252 -147 -433 -393 -368 -61 16 -137 80 -166 140 -43
88 -42 235 3 339 23 52 93 118 147 139 63 24 155 23 222 -3z"/>
<path d="M2247 1613 c-4 -3 -7 -220 -7 -482 0 -397 3 -485 16 -540 36 -152
122 -258 254 -312 48 -20 73 -23 200 -23 127 -1 152 2 204 22 142 55 225 147
267 297 11 39 14 151 15 530 1 264 -1 488 -3 498 -4 15 -18 17 -113 17 -89 0
-109 -3 -114 -16 -3 -9 -6 -234 -6 -500 0 -522 1 -505 -52 -573 -73 -94 -294
-98 -371 -7 -10 12 -27 38 -37 58 -19 36 -20 59 -20 522 0 266 -3 491 -6 500
-5 13 -25 16 -113 16 -59 0 -111 -3 -114 -7z"/>
<path d="M3386 1604 c-3 -9 -6 -305 -6 -658 0 -486 3 -645 12 -654 14 -14 185
-17 205 -4 10 6 13 111 15 447 2 340 6 439 15 443 7 2 16 -5 19 -15 6 -21 19
-50 67 -153 19 -41 49 -106 67 -145 18 -38 50 -108 72 -155 22 -47 53 -114 69
-150 41 -91 56 -115 71 -118 8 -2 32 37 62 100 83 175 132 281 161 343 15 33
43 94 62 135 49 106 60 133 67 153 3 9 10 17 16 17 7 0 10 -145 10 -443 0
-331 3 -446 12 -455 15 -15 171 -16 199 -2 18 10 19 28 19 659 0 542 -2 650
-14 660 -9 8 -55 11 -137 9 l-124 -3 -36 -75 c-20 -41 -51 -105 -68 -142 -111
-241 -152 -330 -169 -368 -52 -116 -57 -123 -72 -85 -5 14 -21 49 -34 78 -78
167 -97 208 -121 262 -15 33 -40 87 -55 120 -15 33 -44 95 -64 138 l-36 77
-139 0 c-117 0 -140 -2 -145 -16z"/>
<path d="M6055 1281 c-143 -25 -281 -170 -273 -286 l3 -40 97 -3 97 -3 26 50
c14 29 41 61 62 76 34 22 48 25 128 25 75 0 97 -4 130 -23 66 -38 107 -136 70
-167 -17 -14 -207 -49 -272 -50 -52 0 -183 -31 -244 -58 -53 -23 -115 -91
-136 -149 -31 -87 -8 -210 54 -283 38 -44 70 -64 148 -92 98 -36 320 -17 368
31 6 6 15 11 20 11 5 0 20 11 33 25 32 34 41 32 49 -14 5 -29 12 -41 28 -45
37 -10 165 -7 172 4 4 6 6 173 6 373 -1 429 -1 428 -96 522 -61 60 -95 78
-185 95 -52 10 -227 11 -285 1z m355 -614 c0 -67 -3 -78 -32 -118 -58 -81
-116 -108 -237 -108 -68 -1 -90 3 -118 20 -37 23 -63 65 -63 101 0 28 29 73
60 95 28 20 176 52 245 53 28 1 66 8 85 15 59 23 60 22 60 -58z"/>
<path d="M7250 1281 c-51 -12 -96 -38 -135 -78 -19 -19 -39 -32 -44 -28 -6 3
-11 26 -11 50 0 54 -8 57 -125 53 l-80 -3 -3 -484 c-2 -356 1 -487 9 -498 9
-10 35 -13 108 -11 l96 3 5 320 c5 300 6 323 26 365 52 109 180 158 296 113
53 -20 73 -37 107 -88 l26 -40 3 -325 c3 -287 5 -326 19 -337 22 -17 185 -17
201 -1 20 20 17 609 -4 701 -33 146 -83 211 -209 271 -45 21 -222 31 -285 17z"/>
</g>
</svg>
