<svg width="64" height="118" viewBox="0 0 64 118" fill="none" xmlns="http://www.w3.org/2000/svg">
<path d="M31.7178 0.75293C43.5866 1.05357 53.1162 10.7697 53.1162 22.7109L53.1084 23.2773C52.8233 34.527 44.0798 43.6731 33 44.5967V58.4121H62C63.1043 58.4124 64 59.3077 64 60.4121C63.9997 61.5163 63.1042 62.4118 62 62.4121H33V89.3633C33.4358 89.4329 33.8516 89.6455 34.1699 89.999L55.6953 113.916L55.8242 114.075C56.4225 114.893 56.3163 116.048 55.5469 116.74C54.7772 117.433 53.618 117.418 52.8672 116.737L52.7227 116.592L31.5781 93.0977H30.7246L9.58008 116.592L9.43555 116.737C8.68475 117.418 7.5255 117.433 6.75586 116.74C5.98628 116.048 5.8792 114.893 6.47754 114.075L6.60742 113.916L28.1318 89.999C28.3754 89.7284 28.6769 89.5414 29 89.4365V62.4121H2C0.895593 62.4121 0.000263904 61.5165 0 60.4121C0 59.3075 0.895431 58.4121 2 58.4121H29V44.5693C18.0636 43.5064 9.47584 34.4246 9.19336 23.2773L9.18652 22.7109C9.18652 10.5802 19.0206 0.746094 31.1514 0.746094L31.7178 0.75293ZM31.1514 4.74609C21.2297 4.74609 13.1865 12.7893 13.1865 22.7109C13.1869 32.6323 21.23 40.6758 31.1514 40.6758C41.0726 40.6756 49.1159 32.6321 49.1162 22.7109C49.1162 12.7894 41.0728 4.74631 31.1514 4.74609Z" fill="black"/>
</svg>
