<svg width="32" height="32" viewBox="0 0 32 32" fill="none" xmlns="http://www.w3.org/2000/svg">
<path d="M28.2071 16.7071C28.5976 16.3166 28.5976 15.6834 28.2071 15.2929L21.8431 8.92893C21.4526 8.53841 20.8195 8.53841 20.4289 8.92893C20.0384 9.31946 20.0384 9.95262 20.4289 10.3431L26.0858 16L20.4289 21.6569C20.0384 22.0474 20.0384 22.6805 20.4289 23.0711C20.8195 23.4616 21.4526 23.4616 21.8431 23.0711L28.2071 16.7071ZM4.5 16V17H5.9375V16V15H4.5V16ZM8.8125 16V17H11.6875V16V15H8.8125V16ZM14.5625 16V17H17.4375V16V15H14.5625V16ZM20.3125 16V17H23.1875V16V15H20.3125V16ZM26.0625 16V17H27.5V16V15H26.0625V16ZM28.2071 16.7071C28.5976 16.3166 28.5976 15.6834 28.2071 15.2929L21.8431 8.92893C21.4526 8.53841 20.8195 8.53841 20.4289 8.92893C20.0384 9.31946 20.0384 9.95262 20.4289 10.3431L26.0858 16L20.4289 21.6569C20.0384 22.0474 20.0384 22.6805 20.4289 23.0711C20.8195 23.4616 21.4526 23.4616 21.8431 23.0711L28.2071 16.7071ZM4.5 16V17H5.9375V16V15H4.5V16ZM8.8125 16V17H11.6875V16V15H8.8125V16ZM14.5625 16V17H17.4375V16V15H14.5625V16ZM20.3125 16V17H23.1875V16V15H20.3125V16ZM26.0625 16V17H27.5V16V15H26.0625V16Z" fill="black"/>
</svg>
