<svg width="32" height="32" viewBox="0 0 32 32" fill="none" xmlns="http://www.w3.org/2000/svg">
<path d="M16.2739 1.78461C19.0874 1.92714 21.3247 4.25403 21.3247 7.10297L21.3179 7.3764C21.2281 9.14848 20.2711 10.6904 18.8638 11.5903L23.7759 17.0493L21.9517 18.6918L17.7271 13.9965V22.2993L23.3794 28.5805L21.5542 30.2221L16.0005 24.0512L10.4468 30.2221L8.62158 28.5805L14.1411 22.4467V14.145L10.0493 18.6918L8.22412 17.0493L13.1353 11.5912C11.7281 10.6913 10.7719 9.14828 10.6821 7.3764L10.6753 7.10297C10.6753 4.16222 13.0597 1.77783 16.0005 1.77777L16.2739 1.78461ZM16.0005 4.23285C14.4156 4.23291 13.1304 5.51808 13.1304 7.10297C13.1306 8.68767 14.4157 9.97205 16.0005 9.97211C17.5851 9.97188 18.8694 8.68756 18.8696 7.10297C18.8696 5.51818 17.5852 4.23308 16.0005 4.23285Z" fill="black"/>
</svg>
