<svg width="32" height="32" viewBox="0 0 32 32" fill="none" xmlns="http://www.w3.org/2000/svg">
<path d="M12.9291 12.5234V14H7.63806V12.5234H12.9291ZM8.21228 4.04688V14H6.3324V4.04688H8.21228ZM12.2386 8.15527V9.59766H7.63806V8.15527H12.2386ZM12.9086 4.04688V5.53027H7.63806V4.04688H12.9086Z" fill="black"/>
<path d="M29.0405 21.7071C29.431 21.3166 29.431 20.6834 29.0405 20.2929L22.6765 13.9289C22.286 13.5384 21.6528 13.5384 21.2623 13.9289C20.8718 14.3195 20.8718 14.9526 21.2623 15.3431L26.9192 21L21.2623 26.6569C20.8718 27.0474 20.8718 27.6805 21.2623 28.0711C21.6528 28.4616 22.286 28.4616 22.6765 28.0711L29.0405 21.7071ZM5.33337 21V22H6.77087V21V20H5.33337V21ZM9.64587 21V22H12.5209V21V20H9.64587V21ZM15.3959 21V22H18.2709V21V20H15.3959V21ZM21.1459 21V22H24.0209V21V20H21.1459V21ZM26.8959 21V22H28.3334V21V20H26.8959V21ZM29.0405 21.7071C29.431 21.3166 29.431 20.6834 29.0405 20.2929L22.6765 13.9289C22.286 13.5384 21.6528 13.5384 21.2623 13.9289C20.8718 14.3195 20.8718 14.9526 21.2623 15.3431L26.9192 21L21.2623 26.6569C20.8718 27.0474 20.8718 27.6805 21.2623 28.0711C21.6528 28.4616 22.286 28.4616 22.6765 28.0711L29.0405 21.7071ZM5.33337 21V22H6.77087V21V20H5.33337V21ZM9.64587 21V22H12.5209V21V20H9.64587V21ZM15.3959 21V22H18.2709V21V20H15.3959V21ZM21.1459 21V22H24.0209V21V20H21.1459V21ZM26.8959 21V22H28.3334V21V20H26.8959V21Z" fill="black"/>
</svg>
